<?xml version="1.0" encoding="UTF-8" standalone="no"?>
<svg
   xmlns:dc="http://purl.org/dc/elements/1.1/"
   xmlns:cc="http://creativecommons.org/ns#"
   xmlns:rdf="http://www.w3.org/1999/02/22-rdf-syntax-ns#"
   xmlns:svg="http://www.w3.org/2000/svg"
   xmlns="http://www.w3.org/2000/svg"
   version="1.1"
   viewBox="0 0 5307.46045 808"
   data-name="Layer 1"
   id="Layer_1">
  <metadata
     id="metadata108">
    <rdf:RDF>
      <cc:Work
         rdf:about="">
        <dc:format>image/svg+xml</dc:format>
        <dc:type
           rdf:resource="http://purl.org/dc/dcmitype/StillImage" />
      </cc:Work>
    </rdf:RDF>
  </metadata>
  <defs
     id="defs4">
    <style
       id="style2">
      .cls-1 {
        fill: #fff;
      }

      .cls-2 {
        fill: #8c1515;
      }

      .cls-3 {
        fill: #c7c7c7;
      }

      .cls-4, .cls-5 {
        fill: #53565a;
      }

      .cls-5 {
        font-family: SourceSans3-Semibold, 'Source Sans 3';
        font-size: 105.87759px;
        font-weight: 600;
      }
    </style>
  </defs>
  <g
     id="g97">
    <g
       data-name=" Group "
       id="_Group_">
      <path
         style="fill:#53565a"
         id="path6"
         d="m 169.93864,630.52908 c 6.30325,5.90118 14.75372,9.92352 22.79907,9.92352 9.92726,0 15.29259,-4.42438 15.29259,-11.2627 0,-7.24426 -5.63136,-9.52521 -13.5437,-12.87555 l -12.07521,-5.23303 c -8.58348,-3.62018 -17.69904,-10.46234 -17.69904,-23.33795 0,-13.9458 12.33293,-24.67719 29.50063,-24.67719 10.19255,0 20.11981,4.29211 26.96194,11.13348 l -7.91232,9.92352 c -5.63136,-4.69421 -11.53633,-7.51025 -19.04961,-7.51025 -8.31062,0 -13.80899,3.88928 -13.80899,10.32556 0,6.8421 6.70155,9.38843 13.942,12.34045 l 11.9422,4.96326 c 10.32556,4.42438 17.69904,10.9975 17.69904,23.73627 0,14.21863 -11.80162,26.021 -31.51556,26.021 -11.80162,0 -23.33795,-4.69421 -31.64857,-12.87555 l 9.11555,-10.59467 v -1.8e-4 h -2e-5 z"
         class="cls-4" />
      <path
         style="fill:#53565a"
         id="path8"
         d="m 265.80722,584.92728 c 8.4512,0 14.88675,3.35419 19.31564,7.6463 l -7.37347,9.79047 c -3.49097,-3.08514 -6.97516,-4.83099 -11.13727,-4.83099 -10.59161,0 -17.97185,8.72028 -17.97185,21.99792 0,13.1416 7.248,21.86188 17.57356,21.86188 5.36609,0 9.92725,-2.68304 13.5437,-5.63513 l 6.43628,9.79047 c -6.16269,5.50214 -14.08258,8.45123 -21.58829,8.45123 -17.97185,0 -31.78915,-12.60651 -31.78915,-34.46771 0,-21.99792 15.42487,-34.60443 32.99088,-34.60443 0,0 0,-1.8e-4 0,-1.2e-4 l -3e-5,1.2e-4 z"
         class="cls-4" />
      <path
         style="fill:#53565a"
         id="path10"
         d="m 295.88376,557.69992 h 15.41806 v 24.41193 l -0.53134,12.74255 c 5.49835,-5.23303 12.06763,-9.92725 21.05698,-9.92725 14.08258,0 20.25281,9.52521 20.25281,26.15326 v 41.30981 h -15.42563 v -39.29865 c 0,-10.86444 -3.08511,-14.88678 -10.32556,-14.88678 -5.77194,0 -9.5282,2.81604 -15.02731,8.1814 v 46.00397 h -15.41806 c 0,0 0,-94.69031 3e-5,-94.69025 h 3e-5 z"
         class="cls-4" />
      <path
         style="fill:#53565a"
         id="path12"
         d="m 395.37634,584.92728 c 16.49582,0 31.38254,12.60651 31.38254,34.60443 0,21.86188 -14.88675,34.46765 -31.38254,34.46765 -16.36279,0 -31.25027,-12.60651 -31.25027,-34.46765 0,-21.99792 14.88675,-34.60443 31.25027,-34.60443 z m 0,56.46637 c 9.65369,0 15.55865,-8.72028 15.55865,-21.86188 0,-13.27765 -5.90421,-21.99792 -15.55865,-21.99792 -9.65444,0 -15.42563,8.72028 -15.42563,21.99792 0,13.1416 5.77118,21.86188 15.42563,21.86188 z"
         class="cls-4" />
      <path
         style="fill:#53565a"
         id="path14"
         d="m 466.7695,584.92728 c 16.49579,0 31.38257,12.60651 31.38257,34.60443 0,21.86188 -14.88678,34.46765 -31.38254,34.46765 -16.36279,0 -31.25027,-12.60651 -31.25027,-34.46765 7.6e-4,-21.99792 14.88748,-34.60443 31.25024,-34.60443 z m 0,56.46637 c 9.65369,0 15.55862,-8.72028 15.55862,-21.86188 0,-13.27765 -5.90421,-21.99792 -15.55865,-21.99792 -9.65444,0 -15.42563,8.72028 -15.42563,21.99792 0,13.1416 5.77194,21.86188 15.42566,21.86188 z"
         class="cls-4" />
      <path
         style="fill:#53565a"
         id="path16"
         d="m 510.89154,557.69992 h 15.41803 v 78.59729 c 0,3.75323 1.7489,5.09625 3.35797,5.09625 0.66431,0 1.20325,0 2.41321,-0.26904 l 2.00739,11.53632 c -1.87439,0.80414 -4.56116,1.33923 -8.17761,1.33923 -10.9975,0 -15.01971,-7.10742 -15.01971,-18.50696 v -77.79315 h 7.6e-4 l -3e-5,6e-5 z"
         class="cls-4" />
      <path
         style="fill:#53565a"
         id="path18"
         d="m 594.31384,584.92728 c 16.49585,0 31.38251,12.60651 31.38251,34.60443 0,21.86188 -14.88678,34.46765 -31.38251,34.46765 -16.36279,0 -31.25031,-12.60651 -31.25031,-34.46765 0,-21.99792 14.88751,-34.60443 31.25031,-34.60443 z m 0,56.46637 c 9.65363,0 15.55865,-8.72028 15.55865,-21.86188 0,-13.27765 -5.90417,-21.99792 -15.55865,-21.99792 -9.65448,0 -15.4256,8.72028 -15.4256,21.99792 0,13.1416 5.77124,21.86188 15.4256,21.86188 z"
         class="cls-4" />
      <path
         style="fill:#53565a"
         id="path20"
         d="m 671.23553,569.9075 c -2.41321,-1.07397 -4.96704,-1.61285 -7.24799,-1.61285 -5.35852,0 -8.31067,3.48724 -8.31067,11.13348 v 7.10742 h 12.87183 v 12.20367 h -12.87183 v 53.65033 h -15.4256 v -53.64874 h -8.84949 v -11.53259 l 8.84949,-0.67188 v -6.83838 c 0,-13.68048 6.30328,-23.60699 21.86188,-23.60699 4.69421,0 9.12238,1.07397 12.06769,2.28101 0,0 -2.94531,11.53558 -2.94531,11.53552 z"
         class="cls-4" />
      <path
         style="fill:#53565a"
         id="path22"
         d="m 706.40387,564.6752 h 17.16772 l 15.83148,43.18872 5.7644,16.62885 h 0.53888 l 5.63141,-16.62885 15.55865,-43.18872 h 17.16772 v 87.71667 h -14.62146 v -40.10358 c 0,-8.1814 1.21082,-19.85077 2.01495,-27.89539 h -0.53888 l -7.10742,19.98297 -15.16034,39.83374 h -7.24042 l -15.15277,-39.83374 -6.97516,-19.98297 h -0.53888 c 0.80414,8.04535 2.01495,19.71393 2.01495,27.89539 v 40.10358 H 706.40329 V 564.6752 h 6.1e-4 -6e-5 z"
         class="cls-4" />
      <path
         style="fill:#53565a"
         id="path24"
         d="m 828.64337,584.92728 c 17.8396,0 27.22723,12.87555 27.22723,31.25024 0,2.95215 -0.27289,5.63513 -0.67188,7.24426 h -41.84869 c 1.34302,11.93463 8.85706,18.64374 19.44788,18.64374 5.63141,0 10.46619,-1.74591 15.2926,-4.83099 l 5.23303,9.65747 c -6.31079,4.15912 -14.22235,7.10742 -22.53302,7.10742 -18.24548,0 -32.46027,-12.74255 -32.46027,-34.46771 7.3e-4,-21.45911 14.88751,-34.60443 30.31311,-34.60443 z m 13.81659,28.70404 c 0,-10.46234 -4.42816,-16.76562 -13.41821,-16.76562 -7.7793,0 -14.4809,5.7644 -15.82471,16.76562 z"
         class="cls-4" />
      <path
         style="fill:#53565a"
         id="path26"
         d="m 894.26227,584.94009 c 7.51331,0 12.20752,2.81604 17.30072,7.24426 l -0.53131,-10.59839 v -23.87305 h 15.41803 v 94.69104 h -12.73956 l -1.07019,-7.10742 h -0.53888 c -4.82721,4.82721 -11.53632,8.71649 -18.64374,8.71649 -16.49579,0 -27.09497,-12.74255 -27.09497,-34.46765 0,-21.45984 13.55127,-34.60522 27.89984,-34.60529 h 6e-5 z m 2.95215,56.33032 c 5.09247,0 9.38843,-2.27716 13.81659,-7.37347 v -30.71521 c -4.56116,-4.02234 -8.99005,-5.49835 -13.41821,-5.49835 -8.44366,0 -15.28577,7.91229 -15.28577,21.7251 0,14.21863 5.36609,21.86188 14.88745,21.86194 h -6e-5 z"
         class="cls-4" />
      <path
         style="fill:#53565a"
         id="path28"
         d="m 941.3584,566.28348 c 0,-5.22931 4.02234,-8.84949 9.5282,-8.84949 5.49835,0 9.52136,3.62018 9.52136,8.84949 0,5.09625 -4.02234,8.72028 -9.52136,8.72028 -5.50519,0 -9.5282,-3.62323 -9.5282,-8.72028 z m 1.74963,20.25287 h 15.41809 v 65.85474 h -15.41809 z"
         class="cls-4" />
      <path
         style="fill:#53565a"
         id="path30"
         d="m 1004.2897,584.92728 c 8.4512,0 14.8867,3.35419 19.3156,7.6463 l -7.3734,9.79047 c -3.491,-3.08514 -6.9752,-4.83099 -11.1374,-4.83099 -10.59151,0 -17.97182,8.72028 -17.97182,21.99792 0,13.1416 7.24799,21.86188 17.57352,21.86188 5.3662,0 9.9273,-2.68304 13.5438,-5.63513 l 6.4363,9.79047 c -6.1627,5.50214 -14.0826,8.45123 -21.5884,8.45123 -17.97181,0 -31.78913,-12.60651 -31.78913,-34.46771 0,-21.99792 15.4248,-34.60443 32.99083,-34.60443 0,0 1e-4,-1.8e-4 1e-4,-1.2e-4 v 1.2e-4 z"
         class="cls-4" />
      <path
         style="fill:#53565a"
         id="path32"
         d="m 1032.6099,566.28348 c 0,-5.22931 4.0222,-8.84949 9.5282,-8.84949 5.4983,0 9.5213,3.62018 9.5213,8.84949 0,5.09625 -4.0222,8.72028 -9.5213,8.72028 -5.5059,0 -9.5282,-3.62323 -9.5282,-8.72028 z m 1.7489,20.25287 h 15.4179 v 65.85474 h -15.4179 z"
         class="cls-4" />
      <path
         style="fill:#53565a"
         id="path34"
         d="m 1066.4208,586.53629 h 12.7387 l 1.0702,8.85327 h 0.539 c 5.9043,-5.76819 12.6065,-10.46234 21.5959,-10.46234 14.0825,0 20.2528,9.52521 20.2528,26.15326 v 41.30981 h -15.4256 v -39.29865 c 0,-10.86444 -3.0852,-14.88678 -10.3256,-14.88678 -5.772,0 -9.5282,2.81604 -15.0273,8.1814 v 46.00397 h -15.418 v -65.854 c 0,0 -2e-4,0 -2e-4,6e-5 z"
         class="cls-4" />
      <path
         style="fill:#53565a"
         id="path36"
         d="m 1165.1084,584.92728 c 17.8396,0 27.2272,12.87555 27.2272,31.25024 0,2.95215 -0.2729,5.63513 -0.6719,7.24426 h -41.8486 c 1.343,11.93463 8.857,18.64374 19.4478,18.64374 5.6314,0 10.4661,-1.74591 15.2926,-4.83099 l 5.2331,9.65747 c -6.3109,4.15912 -14.2224,7.10742 -22.5331,7.10742 -18.2454,0 -32.4603,-12.74255 -32.4603,-34.46771 8e-4,-21.45911 14.8875,-34.60443 30.3131,-34.60443 z m 13.8165,28.70404 c 0,-10.46234 -4.4282,-16.76562 -13.4183,-16.76562 -7.7793,0 -14.4808,5.7644 -15.8246,16.76562 z"
         class="cls-4" />
    </g>
    <path
       id="rect39"
       d="m 452.16766,491.84302 h 740.16344 v 12.04495 H 452.16766 Z"
       style="fill:#c7c7c7" />
    <g
       id="g95">
      <g
         id="g57">
        <path
           style="fill:#53565a"
           id="path41"
           d="m 1142.2125,349.93115 h 48.8767 v 12.15079 h -34.4836 v 20.72592 h 29.1506 v 12.15079 h -29.1506 v 23.94788 h 35.7252 v 12.15079 h -50.1185 v -81.12619 c 0,0 10e-5,0 10e-5,3e-5 h 1e-4 z"
           class="cls-4" />
        <path
           style="fill:#53565a"
           id="path43"
           d="m 1027.9036,349.93115 h 14.7664 l 25.3016,45.64349 8.3128,17.25159 h 0.4951 c -0.6167,-8.3129 -1.8584,-18.60446 -1.8584,-27.66483 v -35.23026 h 13.7674 v 81.12692 h -14.7576 l -25.3121,-45.64423 -8.3129,-17.25085 h -0.4943 c 0.6258,8.56458 1.8676,18.36185 1.8676,27.41165 v 35.48346 h -13.7765 v -81.12692 h 8e-4 v -3e-5 z"
           class="cls-4" />
        <path
           style="fill:#53565a"
           id="path45"
           d="m 959.98633,349.93115 h 14.39325 v 81.12692 h -14.39325 v -81.12695 z"
           class="cls-4" />
        <path
           style="fill:#53565a"
           id="path47"
           d="m 888.84857,348.44601 c 9.79657,0 17.97791,4.82797 23.06891,10.29233 l -8.06042,8.93945 c -4.10089,-4.10089 -8.68628,-6.70761 -14.88751,-6.70761 -13.39404,0 -22.82782,11.1713 -22.82782,29.40314 0,18.47446 8.68701,29.64499 22.33203,29.64499 7.19128,0 12.4032,-2.98007 16.98938,-8.06049 l 8.07031,8.80795 c -6.57611,7.56467 -15.14069,11.77744 -25.31207,11.77744 -20.71613,0 -36.8363,-14.88824 -36.8363,-41.79575 0,-26.54474 16.61523,-42.30139 37.46356,-42.30142 l -6e-5,-3e-5 z"
           class="cls-4" />
        <path
           style="fill:#53565a"
           id="path49"
           d="m 787.67969,349.93115 h 14.39325 v 81.12692 h -14.39325 v -81.12695 z"
           class="cls-4" />
        <path
           style="fill:#53565a"
           id="path51"
           d="m 677.19873,349.93115 h 21.7168 c 24.80646,0 39.44147,13.40311 39.44147,40.18973 0,26.91736 -14.63507,40.93719 -38.70538,40.93719 h -22.45367 v -81.12695 h 7.9e-4 v 3e-5 z m 20.71686,69.4606 c 16.37262,0 25.68542,-9.29315 25.68542,-29.27164 0,-19.84695 -9.31281,-28.52338 -25.68542,-28.52338 h -6.32367 v 57.79501 h 6.32367 z"
           class="cls-4" />
        <path
           style="fill:#53565a"
           id="path53"
           d="m 577.51727,349.93115 h 48.87598 v 12.15079 h -34.48352 v 20.72592 h 29.14923 v 12.15079 h -29.14917 v 23.94788 h 35.72528 v 12.15079 h -50.11853 v -81.12619 c 0,0 7.3e-4,0 7.3e-4,3e-5 z"
           class="cls-4" />
        <path
           style="fill:#53565a"
           id="path55"
           d="m 452.16766,349.93115 h 15.87833 l 14.64563,39.94711 5.33282,15.37271 h 0.49579 l 5.21188,-15.37271 14.38263,-39.94711 h 15.8783 v 81.12692 h -13.51498 v -37.08875 c 0,-7.56616 1.11179,-18.35278 1.85849,-25.80637 h -0.49429 l -6.57611,18.48352 -14.01907,36.84689 h -6.69702 l -14.01984,-36.84689 -6.45367,-18.48352 h -0.49582 c 0.74747,7.45435 1.85846,18.24094 1.85846,25.80637 v 37.08875 h -13.27237 v -81.12695 h 8.5e-4 v 3e-5 z"
           class="cls-4" />
      </g>
      <g
         id="g75">
        <path
           style="fill:#8c1515"
           id="path59"
           d="m 485.73145,308.11496 c -12.63525,0 -22.26096,-1.38385 -32.13983,-4.60577 l -1.42389,-0.46405 v -7.08099 c 0,-9.42316 -0.20178,-13.13031 -0.40359,-16.13077 l -0.28342,-4.89828 5.74777,0.0106 0.12091,2.04968 c 0.24185,4.39337 1.71713,8.71725 4.40396,11.74643 4.14096,4.68741 13.68579,7.5148 22.54437,7.5148 18.57501,0 27.20981,-7.03033 27.20981,-22.12036 0,-12.9285 -7.98865,-18.30215 -19.01865,-25.75571 l -1.76779,-1.2123 -11.65649,-7.75742 c -16.20105,-10.73672 -24.44366,-19.33228 -24.44366,-36.50301 0,-8.40359 3.17203,-35.81674 44.00797,-35.81674 16.75659,0 29.67596,2.20238 30.22089,2.28249 l 1.7572,0.31364 -0.0612,1.72697 c 0,0.0506 -0.14056,5.37289 -0.14056,11.15086 0,4.54607 -0.0808,8.50487 0.0808,12.59595 l 0.16101,3.05035 h -4.94891 l -0.12091,-1.90912 c -0.36432,-5.19075 -1.87891,-8.91904 -4.72748,-11.77667 -3.92859,-3.93991 -12.61557,-5.77724 -21.81653,-5.77724 -21.63519,0 -24.16101,11.13123 -24.16101,19.46303 0,11.48494 5.88907,15.37271 18.74655,23.867 l 14.75748,9.77686 c 12.57483,8.38394 24.42249,16.30234 24.42249,37.14996 0.002,35.29224 -32.91605,39.10974 -47.06741,39.10974 0,0 1.8e-4,0 1.2e-4,6e-5 h 3e-5 z"
           class="cls-2" />
        <path
           style="fill:#8c1515"
           id="path61"
           d="m 582.47522,308.7309 c -15.07043,0 -23.41351,-5.38348 -27.11993,-17.40427 -1.53577,-4.78641 -1.53577,-14.21106 -1.53577,-19.85754 0,-15.56467 0.14136,-28.05936 0.30304,-42.52286 l 0.0817,-6.78772 h -12.85822 v -3.82806 l 1.25238,-0.51469 c 5.98962,-2.47368 8.27209,-4.16061 10.91888,-6.20123 9.36267,-7.2616 15.867,-19.53484 15.96826,-19.71547 l 2.19177,-3.71696 h 4.24298 v 21.89818 h 33.17981 v 12.07974 h -33.17981 v 51.14941 c 0,15.27142 2.84857,23.9985 17.32263,23.9985 6.71667,0 11.88776,-2.60669 11.92859,-2.64676 l 2.00061,-1.03012 1.70654,3.95956 -0.83893,0.94925 c -0.34467,0.38318 -7.8587,10.19104 -25.56458,10.19104 h 6e-5 z"
           class="cls-2" />
        <path
           style="fill:#8c1515"
           id="path63"
           d="m 647.05719,308.36737 c -26.40265,0 -28.4433,-20.04953 -28.4433,-26.20087 0,-7.23135 1.93933,-20.00946 18.76624,-26.20087 17.36346,-6.38338 21.07965,-7.12102 33.02942,-10.8788 v -3.09042 c 0,-5.78783 0,-7.20189 -1.15106,-10.78734 -2.30365,-6.88824 -8.90851,-11.21059 -17.86829,-11.21059 -13.18097,0 -18.58405,10.05952 -18.62415,10.1608 l -1.05054,1.96957 -4.88916,-2.90826 0.48523,-1.50478 c 2.38373,-7.576 11.94897,-20.46445 32.85706,-20.46445 13.58527,0 22.43256,3.85904 27.9173,12.18176 4.08051,6.60481 4.40399,15.73698 4.40399,25.2811 0,8.38394 -0.20258,17.72699 -0.38391,25.26141 -0.12164,5.17111 -0.22223,9.65591 -0.22223,12.38358 0,6.88824 1.08984,12.22107 6.82703,12.22107 1.42389,0 2.39435,-0.30307 3.18262,-0.97043 l 1.57501,-1.33319 3.2113,3.65723 -1.07019,1.37329 c -5.27161,6.36298 -10.2923,10.84781 -19.24084,10.84781 -7.74683,0 -13.11066,-3.67691 -14.92908,-9.85773 -4.30267,4.48483 -12.13043,10.07013 -24.38245,10.07013 v -3e-5 z m 23.35229,-51.24011 c -12.97913,3.89911 -17.38312,6.07047 -21.4024,8.10052 -5.586,2.82739 -8.49432,8.56534 -8.49432,15.30243 0,5.27313 1.87811,14.11057 14.53455,14.11057 4.18176,0 10.15027,-0.76862 15.36212,-4.50525 v -33.00824 l 6e-5,-3e-5 z"
           class="cls-2" />
        <path
           style="fill:#8c1515"
           id="path65"
           d="m 714.99341,307.50882 v -4.62616 l 1.87811,-0.14059 c 1.63629,-0.14133 5.75684,-0.7883 8.63635,-4.04117 3.00952,-3.35342 3.19171,-11.66556 3.19171,-28.26114 V 242.6026 c 0,-11.97922 -0.18213,-17.11028 -1.91968,-19.71547 -1.98999,-2.86897 -6.39398,-3.17204 -8.73688,-3.3436 -0.30304,-0.0106 -0.56604,-0.0506 -0.80798,-0.0597 l -1.85852,-0.19272 v -5.5762 l 2.20233,0.17155 c 0.38391,0.0506 0.86761,0.0506 1.4942,0.0506 3.00952,0 10.11017,-0.40359 17.60455,-1.85847 5.72656,-0.90921 9.06036,-2.88863 10.27264,-3.45319 l 1.11102,-0.5162 1.91968,1.142 v 7.73624 c 4.91943,-3.64592 14.79681,-9.36269 28.2309,-9.36269 17.55389,0 29.02826,8.21088 32.30084,23.09988 0.92963,3.69655 1.2735,12.65567 1.2735,17.43298 v 28.42365 c 0,16.08014 0.62579,20.59445 3.63538,23.41199 1.51538,1.39444 4.72668,2.5455 7.53522,2.72763 l 1.91968,0.14133 v 4.54453 l -4.828,-0.25244 c -6.9895,-0.3537 -13.00934,-0.67642 -19.33301,-0.67642 -7.19128,0 -13.4129,0 -22.09998,0.80792 l -2.26208,0.2222 v -4.50449 l 1.7572,-0.24335 c 3.77747,-0.58572 6.40302,-1.65594 8.08014,-3.32321 3.15161,-3.16071 3.31415,-10.64603 3.55597,-17.11932 0.0401,-1.07172 0.0808,-2.20236 0.14136,-3.37384 0.18066,-3.63687 0.18066,-11.29221 0.18066,-16.88806 0,-7.2926 0,-14.82777 -0.7868,-22.27228 -1.4549,-12.59444 -8.01971,-18.45255 -20.68591,-18.45255 -8.68701,0 -14.12115,1.98999 -18.23108,4.10091 v 51.14864 c 0,16.08014 0.6568,20.59445 3.66632,23.41202 1.53503,1.39444 4.7063,2.5455 7.53448,2.72763 l 1.90912,0.14133 v 4.54453 l -5.1817,-0.26303 c -6.74768,-0.35294 -12.59515,-0.66586 -18.73596,-0.66586 -7.04016,0 -13.64648,0 -22.36377,0.80792 0,0 -2.20007,0.22369 -2.20001,0.22372 v 9e-5 z"
           class="cls-2" />
        <path
           style="fill:#8c1515"
           id="path67"
           d="m 836.47028,307.50873 v -4.72672 l 1.89929,-0.14133 c 1.65594,-0.12091 5.77802,-0.76712 8.64545,-4.01022 3.0307,-3.36325 3.17126,-11.59528 3.17126,-28.19086 v -48.28119 h -12.68585 v -5.46434 l 1.27197,-0.5351 c 5.51495,-2.27341 8.90924,-4.08125 11.41388,-6.02966 0.0204,-8.63638 0.28339,-19.76761 1.45563,-25.82751 3.85828,-20.10091 16.98859,-30.30177 39.08929,-30.30177 9.47455,0 18.52429,3.16222 23.77631,7.42409 l 0.7475,0.60614 0.30304,2.07086 -9.67712,13.43335 -2.3233,0.0197 -0.52533,-1.21152 c -3.69653,-8.26302 -9.07019,-11.49551 -16.40289,-11.49551 -3.05035,0 -7.23212,0.90921 -9.81769,3.50534 -4.22186,4.20142 -4.92926,10.47446 -4.92926,22.89883 v 18.82741 h 21.69635 v 12.07974 h -21.69635 v 54.01837 c 0,12.85822 0.42401,19.1199 2.10034,21.63593 2.72766,4.10089 11.01031,4.41455 13.45453,4.41455 h 2.06024 v 5.18094 l -2.16156,-0.12091 c -10.72687,-0.55551 -18.70648,-0.80792 -24.46332,-0.80792 -7.23212,0 -15.45355,0 -24.16028,0.80792 l -2.24243,0.22144 c 0,0 3.1e-4,0 3.1e-4,-3e-5 v 3e-5 z"
           class="cls-2" />
        <path
           style="fill:#8c1515"
           id="path69"
           d="m 948.48621,309.14511 c -29.71606,0 -47.47247,-18.52435 -47.47247,-49.53354 0,-24.07938 12.9693,-52.19843 49.53351,-52.19843 29.73572,0 47.49213,18.52434 47.49213,49.52295 -7.9e-4,24.08997 -12.9693,52.20901 -49.55322,52.20901 h 6e-5 z m 1.23193,-90.4798 c -5.73718,0 -10.383,1.48436 -13.77649,4.42363 -7.83905,6.55569 -11.79779,18.50468 -11.79779,35.48344 0,6.56476 1.21228,39.32059 25.1911,39.32059 5.7168,0 10.383,-1.50479 13.81732,-4.42365 7.79742,-6.55573 11.75702,-18.50467 11.75702,-35.49402 -0.002,-6.56401 -1.21228,-39.31 -25.19116,-39.31 z"
           class="cls-2" />
        <path
           style="fill:#8c1515"
           id="path71"
           d="m 1007.4323,307.50882 v -4.92923 l 1.8993,-0.16098 c 1.6559,-0.10129 5.8181,-0.74747 8.6666,-4.02002 3.0293,-3.35342 3.1501,-11.36249 3.1501,-27.95807 v -27.83716 c 0,-11.97922 -0.161,-17.11028 -1.8781,-19.71547 -2.0006,-2.86897 -6.3835,-3.17204 -8.7468,-3.3436 -0.2827,-0.0106 -0.5661,-0.0506 -0.7672,-0.0597 l -1.8993,-0.19272 v -5.89893 l 2.1003,0.04 c 0.3643,0.0302 0.9901,0.0401 1.5962,0.0401 3.0307,0 10.1207,-0.37337 17.5954,-1.83807 4.7267,-0.78828 8.8071,-2.00056 10.4435,-2.77827 l 1.1315,-0.50487 1.7171,0.89864 v 8.46481 c 4.6669,-4.40398 12.0608,-9.07095 22.5248,-9.07095 6.8074,0 12.302,1.81844 16.3016,5.42352 l 0.6674,0.61671 v 3.07076 l -8.2018,15.02959 h -3.9385 l -0.606,-0.94926 c -2.2825,-3.57562 -6.8482,-7.83752 -15.6962,-7.83752 -4.0397,0 -7.5344,1.00974 -10.6256,3.09041 v 49.08835 c 0,12.85822 0.424,18.92871 2.1002,21.43335 2.7472,4.08051 10.9891,4.4032 13.4333,4.4032 h 2.0407 v 5.39404 l -2.142,-0.12091 c -10.7058,-0.55551 -18.7064,-0.80792 -24.4634,-0.80792 -7.2314,0 -15.4339,0 -24.1406,0.80792 l -2.2627,0.2222 h 10e-5 z"
           class="cls-2" />
        <path
           style="fill:#8c1515"
           id="path73"
           d="m 1160.5564,308.86243 -2.6067,-0.86917 v -8.20181 c -4.8279,3.57562 -14.4038,9.13065 -27.2114,9.13065 -26.7459,0 -44.0382,-18.54474 -44.0382,-47.26993 0,-9.52443 1.8789,-18.58481 5.3336,-26.22128 8.1406,-17.67484 25.1095,-27.80615 46.4613,-27.80615 7.839,0 14.8481,0.96892 19.0299,1.86832 v -20.70554 c 0,-12.14021 -0.161,-18.60445 -1.8993,-21.22174 -1.9794,-2.83798 -6.2421,-3.16071 -8.5449,-3.33228 -0.3031,-0.0106 -0.5662,-0.031 -0.7868,-0.0612 l -1.8388,-0.18214 0.424,-4.37299 h 2.0611 c 0.4641,0 11.7162,-0.92961 20.8664,-2.72765 3.8379,-0.62579 7.6365,-1.48512 9.6159,-2.21219 l 0.9704,-0.36278 1.6764,0.99989 -0.081,0.94926 c -0.6461,8.0295 -0.7475,25.19038 -0.7475,38.0486 v 79.40979 c 0,11.86813 0.161,19.2106 1.8781,21.57394 2.021,2.8992 6.2625,3.3844 8.5661,3.56656 0.3031,0.009 0.5857,0.0197 0.808,0.0597 l 1.838,0.071 v 5.23157 h -2.0398 c -2.1819,0 -10.6861,0.59555 -18.9091,2.01038 -4.7267,0.76712 -8.2214,1.45416 -9.9386,2.24167 0,0 -0.8873,0.38544 -0.8873,0.38547 z m -22.4847,-89.57135 c -18.9688,0 -28.24,12.98972 -28.24,39.70526 0,10.82663 3.07,36.00797 31.3515,36.00797 h 0.9092 c 3.4336,0 9.838,-0.50485 15.434,-3.96939 v -65.22821 c -1.5971,-1.57733 -7.4951,-6.51564 -19.4547,-6.51564 v 2e-5 z"
           class="cls-2" />
      </g>
      <g
         id="g93">
        <path
           style="fill:#8c1515"
           id="path77"
           d="m 375.45227,167.09114 h -210.133 c -5.25726,12.26492 -17.0173,60.18559 -8.04913,115.30589 0.24564,1.51233 0.54417,3.04053 0.82153,4.56345 9.60001,52.60431 38.53456,110.93216 110.01239,150.8634 0.77997,0.4361 1.48969,0.90167 2.28021,1.33319 0.78979,-0.43079 1.49948,-0.89709 2.27945,-1.33246 148.95584,-83.21292 113.16473,-246.506 102.78854,-270.73352 v 5e-5 z"
           class="cls-2" />
        <path
           style="fill:#ffffff"
           id="path79"
           d="M 268.10483,167.09114 V 282.39703 H 157.27017 c 0.24564,1.51233 0.54417,3.04053 0.82153,4.56345 h 110.01236 v 150.8634 c 0.77997,0.4361 1.48969,0.90167 2.28021,1.33319 0.78979,-0.43079 1.49948,-0.89709 2.27945,-1.33246 V 167.09114 h -4.55893 3e-5 z"
           class="cls-1" />
        <path
           style="fill:#ffffff"
           id="path81"
           d="m 212.96182,188.47462 0.0544,3.24686 c 2.16534,-1.75192 5.30562,-3.14407 7.80426,-3.65726 -1.37704,6.22467 -4.43571,7.80652 -7.75665,8.37637 l -0.12395,5.2361 c 2.70874,-2.18044 6.80434,-5.12347 9.92651,-5.75986 -1.76476,7.90175 -5.5883,10.78433 -9.81767,11.39275 l 0.0159,5.15221 c 3.36855,-2.17365 8.68852,-5.99718 12.58839,-6.63506 -2.23561,8.02116 -7.19887,11.18791 -12.57478,11.68748 l 0.009,4.74257 c 3.3746,-2.18044 8.6651,-5.59435 12.56496,-6.21861 -2.1487,7.75211 -7.38103,12.45009 -12.55287,13.17337 l 0.007,4.01549 c 3.3746,-2.18422 8.64619,-5.59056 12.54607,-6.21484 -2.04063,8.11639 -7.20493,12.48788 -12.60352,12.95496 v 3.28542 c 4.06615,-2.3981 10.70724,-6.57307 15.39613,-7.27521 -2.66792,8.71953 -8.97874,13.45528 -15.38026,14.05765 v 3.75627 c 2.15852,-1.74586 6.7439,-3.63458 9.2448,-4.13416 -1.32867,5.95259 -6.1264,7.99168 -9.29315,8.77318 l -0.0159,7.0311 c 0.75276,-0.0227 1.48891,-0.15643 2.24469,-0.2464 -0.21162,-2.43893 1.21681,-4.94965 4.38356,-6.96762 0.14436,1.86682 -0.92886,4.60123 -1.53123,6.44534 1.71034,-0.38318 3.39122,-0.85706 5.08871,-1.5849 -0.90921,-3.56354 0.27888,-8.44061 4.35863,-12.57404 0.75882,2.74728 0.0575,7.24347 -0.31441,10.22128 1.79272,-1.09515 3.61189,-2.29004 5.354,-3.81067 -1.95976,-3.37836 -1.60075,-8.62579 2.21596,-13.89665 1.12009,2.5833 1.17825,7.57526 1.21983,10.57875 1.5403,-1.63628 3.21512,-3.50911 4.701,-5.4976 -2.69591,-3.27934 -2.78885,-6.45592 0.41643,-12.83099 1.12083,2.58478 2.14191,6.465 2.18423,9.48135 1.39291,-1.7897 2.37619,-3.29449 3.55067,-5.4462 -0.69759,-1.65216 -0.36203,-2.89769 0.48067,-3.97092 1.18129,-1.48891 2.97099,-2.76997 4.54985,-1.7897 2.22278,1.01199 1.10875,3.44487 0.33331,5.22853 -0.56079,1.26216 -1.4957,2.11772 -3.15768,2.07843 -1.12083,2.03004 -2.74046,4.243 -4.13641,6.01683 3.23399,1.02107 5.50742,1.7776 7.67198,3.983 -4.74181,1.97942 -7.59189,1.50854 -9.96431,-0.46104 -1.53424,2.04668 -3.77591,4.25507 -5.37894,5.94049 3.12138,0.96967 5.17337,1.84109 7.72945,4.4342 -5.19376,2.17139 -9.03015,1.49268 -11.32925,-0.95383 -1.80331,1.54333 -3.52802,3.14105 -5.38876,4.23318 3.06775,1.56598 5.29279,3.23099 7.14673,5.78027 -5.91705,1.35059 -9.80482,-0.32651 -11.53104,-3.6376 -1.74814,0.70743 -3.38441,1.29996 -5.15825,1.63553 1.69069,1.45111 2.84024,2.56818 3.68219,4.45764 -4.05101,-0.10278 -6.34937,-1.05054 -6.9487,-3.5386 -0.81927,0.0741 -1.63251,0.62201 -2.45631,0.61523 v 7.91235 l -4.97913,-2.21597 v -5.80521 c -0.50185,-0.0423 -1.68388,-0.44894 -2.17062,-0.5351 -0.72404,2.34674 -2.50316,3.25974 -6.39095,3.34964 0.86386,-1.92499 1.32187,-3.2854 3.28542,-4.30347 -1.80331,-0.45801 -3.47131,-1.32867 -5.2429,-2.14191 -1.53954,3.67542 -5.02371,5.21869 -11.2771,3.79102 1.84184,-2.56137 4.14095,-4.85138 7.26917,-5.91479 -1.60075,-0.98935 -3.07076,-1.99829 -4.65564,-3.52802 -2.27341,2.55759 -6.14531,3.43503 -11.44791,1.23193 2.17139,-2.21899 4.33595,-3.97318 7.6342,-4.60425 -1.66199,-1.64914 -3.1985,-3.65047 -4.77431,-5.65102 -2.37619,2.08142 -5.93973,2.76013 -10.80399,0.72026 2.17818,-2.21597 4.66245,-4.56268 7.79065,-4.52716 -0.96062,-1.36041 -1.79953,-2.91055 -2.80171,-4.48636 -1.03165,-0.0287 -1.9212,-0.006 -2.97778,-1.34756 -1.15636,-1.47606 -2.24167,-4.64281 -0.32047,-5.64195 1.17525,-1.02184 3.92632,0.47086 4.8446,2.13583 0.82986,1.51083 0.52831,2.42004 0.22446,3.48039 0.97345,1.52063 2.0648,3.03221 3.04808,4.38658 -0.67567,-4.37071 0.55399,-7.99245 1.68465,-10.56969 3.91875,5.44016 3.19547,10.14114 1.00897,13.48323 1.62947,2.00133 2.99669,3.50308 4.61105,5.13934 -0.46783,-3.06471 -0.093,-7.69392 1.02786,-10.27872 3.65121,5.03052 4.147,10.18651 2.48199,13.57695 1.53046,1.29617 2.95815,2.52585 4.47653,3.49023 -0.82986,-2.88785 -1.20094,-7.67198 -0.44214,-10.42609 4.12131,4.18857 5.39859,8.93341 4.43797,12.51358 1.75494,0.81021 3.45168,1.49948 5.21342,1.90836 -0.83289,-1.71338 -1.6393,-4.63071 -1.49646,-6.48389 3.09041,1.96582 3.87491,4.25507 3.74115,6.66302 0.49278,0.0514 1.80557,0.64395 2.27567,0.6666 l -0.11185,-6.94266 c -3.04128,-0.78149 -7.63042,-2.5455 -9.13823,-8.43381 2.85234,0.67567 6.50658,1.37025 9.13823,3.71999 V 250.047 c -6.15437,-0.51846 -12.36922,-4.88313 -15.43695,-13.60493 5.354,0.92281 10.4994,3.47435 15.43695,6.69553 l 0.007,-3.22118 c -5.37289,-0.3998 -10.4548,-5.38574 -12.73502,-12.48787 4.46445,0.83968 8.61069,2.85989 12.7282,5.79915 v -4.06007 c -5.04639,-0.55701 -10.20766,-4.8378 -12.7282,-12.70554 4.46445,0.84195 8.61069,2.75031 12.7282,5.68654 v -4.53397 c -5.20284,-0.37186 -10.13132,-3.27634 -12.7282,-11.36099 4.46445,0.83968 8.61069,3.16977 12.7282,6.10677 v -5.04942 c -4.10165,-0.46783 -7.966,-2.99747 -10.01192,-10.97099 3.57034,0.8427 6.72424,2.36938 10.01192,5.31242 l 0.007,-5.24818 c -3.15768,-0.55701 -6.07803,-1.8222 -7.66594,-7.98943 2.15173,0.49657 4.7607,0.61218 7.6841,3.21738 l -0.0446,-3.15692 c -2.39812,-3.54767 -1.86983,-5.11365 -1.58791,-7.93501 0.27512,-2.56816 1.21983,-4.45988 3.98601,-4.58838 2.75711,0.12849 3.69884,2.02022 3.983,4.58838 0.28416,2.82059 0.81247,4.3866 -1.57959,7.93427"
           class="cls-1" />
        <g
           id="g89">
          <path
             style="fill:#ffffff"
             id="path83"
             d="m 330.01587,253.36725 c 1.6106,-19.91045 4.55664,-25.33475 9.4292,-29.38803 l 0.73386,-0.60841 -2.01117,-13.24669 -1.6907,0.27737 c -2.21295,0.36201 -4.27853,2.05272 -5.89816,3.88701 l -0.0189,-9.80106 -14.79077,-8.74522 0.01,7.36742 c -1.13669,-1.09135 -2.12906,-1.92046 -2.56137,-2.24091 -1.49872,-1.10497 -2.83041,-1.61964 -4.18857,-1.61964 -0.80341,0 -1.50479,0.17912 -2.12299,0.33859 -1.05283,0.27888 -1.77081,0.50034 -3.31412,-0.15945 -6.71442,-1.35435 -11.91196,0.14133 -14.78394,4.19765 -2.69589,3.80765 -3.1282,9.69296 -1.12991,15.35759 1.28406,3.64062 3.6308,7.80652 6.9744,12.37222 1.34756,1.85092 13.12802,14.26851 15.73474,16.92886 1.72546,1.75871 3.56958,3.50005 5.453,5.22928 l 0.003,4.51434 -2.96799,-2.01718 -3.92935,9.09061 1.2327,0.76862 c 2.7261,1.7005 5.58524,6.42947 7.55713,31.27826 -7.13388,2.95816 -16.24036,11.3829 -16.49356,20.03741 -0.1217,4.147 1.84109,9.90762 12.05859,13.90952 1.96277,0.76562 4.08881,1.5947 6.20276,2.4563 0.13074,4.72366 0.24942,9.79575 0.34918,15.21927 -2.04291,0.92282 -5.4205,3.01938 -6.07123,6.00775 -0.57892,2.68533 1.06943,5.28976 4.90582,7.74606 0.44211,0.28796 0.90921,0.46103 1.38004,0.64017 0.0159,1.50705 0.0287,3.10175 0.0453,4.66168 -1.60452,0.78751 -2.45557,1.37329 -3.69882,2.78885 -0.6893,0.78149 -1.32944,1.62418 -0.96439,2.42383 0.096,0.20557 0.40057,0.69833 1.18433,0.69833 0.53436,0 1.29996,-0.22449 2.73822,-0.80719 0.3779,-0.15344 0.6976,-0.26904 0.96967,-0.35825 0.73083,1.77988 2.34445,2.92264 4.18857,2.92264 1.97943,0 3.60587,-1.32187 4.04117,-3.30731 l 0.0423,-0.18518 v -0.18896 c -0.007,-0.67871 -0.01,-1.31357 -0.0159,-1.98471 1.40881,-0.95154 2.2598,-2.43063 2.33084,-4.18176 0.0832,-2.00208 -0.85178,-3.94217 -2.3981,-5.40536 -0.0166,-2.24469 -0.0257,-4.36996 -0.0385,-6.53833 6.55115,-1.52142 13.28146,-5.78931 13.91632,-11.45697 0.39301,-3.52573 -1.49191,-8.68097 -12.72519,-13.22098 -0.4444,-0.17914 -0.85403,-0.3522 -1.28711,-0.53134 -0.0128,-9.47906 0.01,-18.03763 0.0673,-25.8056 11.63989,-5.90118 19.57413,-11.42825 20.58917,-18.81833 1.05963,-7.70676 -5.26181,-16.82986 -19.03677,-30.50281 v 6e-5 h 6e-5 z m -17.50555,-16.44208 c -18.18726,-16.48749 -18.95587,-24.00984 -17.79047,-27.02242 1.35361,-3.51591 6.01682,-3.6308 6.9646,-3.40105 0.57364,0.12546 0.60162,0.23656 0.78149,0.97044 0.28418,1.16542 0.71344,2.92943 4.20749,4.07974 3.88702,1.28709 6.86859,2.00433 9.11932,2.21825 l 0.0287,26.17365 c -1.0853,-0.99158 -2.16833,-1.98167 -3.31113,-3.01862 h -3e-5 z m 21.73267,105.77618 c -0.0385,0.74219 -0.90921,2.1676 -5.7901,3.78802 -0.0159,-3.04581 -0.0257,-6.03268 -0.0378,-8.91525 3.48343,1.82599 5.90497,3.61569 5.82791,5.12726 z m -7.06055,-136.28278 0.0159,7.3969 -4.12131,-1.09816 -2.14191,-1.09512 c 0.25018,-1.34833 -0.56381,-3.04884 -1.77158,-4.70779 l -0.005,-5.2444 c 0,0 8.02417,4.74861 8.0242,4.7486 v -2e-5 z M 310.4546,317.44369 c -0.27814,-2.30289 2.15549,-5.26709 7.99622,-9.70883 0.28418,4.96326 0.54117,10.54776 0.76108,16.79208 -5.10687,-2.44421 -8.46857,-4.73276 -8.75729,-7.08325 z m 12.47275,17.54788 c 0.71423,0.30685 1.41861,0.61746 2.1041,0.93719 0.0189,6.93887 0.0537,14.30707 0.1058,22.17783 -0.58347,-0.32047 -1.24631,-0.76862 -1.77383,-1.30676 -0.11337,-7.93805 -0.26074,-15.19055 -0.4361,-21.80823 z m 0.60162,36.47656 c -0.0227,-2.52054 -0.0484,-4.96024 -0.0748,-7.36514 0.74295,0.19876 1.32263,0.44894 1.72623,0.89032 0.0166,2.2001 0.0295,4.35483 0.0491,6.61542 -0.22751,0.65756 -1.16922,0.84271 -1.70053,-0.14062 v 3e-5 z m 1.48209,-44.36771 c -0.80341,-0.33932 -1.59698,-0.67267 -2.35577,-1.00821 -1.77081,-52.01022 -5.68048,-59.43661 -9.46924,-62.27609 l 1.17224,-2.71176 4.87329,3.30127 -0.01,-7.83829 c 0.58649,0.52451 1.17523,1.06564 1.75494,1.58789 1.72623,1.53726 3.42975,3.06094 5.06906,4.56949 -0.76184,14.7764 -1.06036,35.34286 -1.0347,64.3757 z m 1.90234,-76.76831 c -2.37543,-2.29305 -4.94736,-4.71687 -7.70676,-7.27142 l -0.0355,-29.51649 c 0.31064,-0.10884 0.57291,-0.25243 0.80414,-0.42249 l 2.11618,1.02711 2.86292,4.57025 0.89032,-0.28191 -0.17609,-2.89995 1.53348,-0.31139 0.007,4.46141 3.20831,0.74219 c 0.80341,-1.63023 2.89844,-4.61484 4.98517,-5.99416 l 1.15332,7.57224 c -4.91263,4.34427 -7.9267,10.08826 -9.64233,28.32465 l 6e-5,-5e-5 z m 12.11603,32.20938 c -0.61066,3.7366 -4.06387,7.04999 -10.46387,10.1026 0.14133,-10.58252 0.36505,-19.45547 0.70135,-26.87805 6.16422,6.00323 10.59918,11.67465 9.76248,16.77545 h 3e-5 z"
             class="cls-1" />
          <path
             style="fill:#8c1515"
             id="path85"
             d="m 307.92874,207.09796 c -0.2887,-0.15041 -0.60614,-0.23051 -0.92358,-0.23051 -0.54037,0 -0.99158,0.23354 -1.20319,0.63107 -0.36124,0.66885 0,1.52745 0.84271,1.99454 0.30685,0.16702 0.63715,0.25319 0.95758,0.25319 0.52451,0 0.95758,-0.23656 1.19113,-0.66885 0.32574,-0.6666 -0.0552,-1.53802 -0.86465,-1.97942 z"
             class="cls-2" />
          <path
             style="fill:#8c1515"
             id="path87"
             d="m 310.88992,201.93291 c -0.34842,-0.33028 -0.80945,-0.51846 -1.26746,-0.51846 -0.36505,0 -0.67569,0.12471 -0.86462,0.33633 -0.22369,0.22446 -0.34613,0.5351 -0.33932,0.87822 0.009,0.44818 0.24335,0.93114 0.62729,1.2803 0.36203,0.34312 0.81625,0.53435 1.24854,0.53435 0.36124,0 0.6817,-0.13075 0.9024,-0.37109 0.22144,-0.23354 0.33331,-0.55096 0.3197,-0.89032 -0.0174,-0.44894 -0.24866,-0.90315 -0.62656,-1.2493 z"
             class="cls-2" />
        </g>
        <path
           style="fill:#ffffff"
           id="path91"
           d="m 241.36732,331.06821 -0.0129,-24.73917 h -43.90291 v 43.89386 h 13.55806 v 24.7543 h 43.8961 v -43.90897 c 0,0 -13.53844,0 -13.53841,0 l 2e-5,-3e-5 z m -12.99348,-19.15466 h 7.18526 v 18.36411 h -7.18527 c 0,0 0,-18.36414 2e-5,-18.36411 z m 7.37119,38.30933 v 5.5845 h -5.5845 v -5.5845 z m -31.71962,-38.30936 h 18.36034 v 7.18527 h -18.36034 z m 6.98424,32.72482 h -7.17696 v -18.35431 h 7.17696 z m 5.58678,-19.16071 h 5.57771 v 5.59055 h -5.57771 z m 0.60159,11.96863 h 18.3611 v 7.18527 h -18.36108 c 0,0 0,-7.18527 -2e-5,-7.18527 z m 7.38103,31.14978 h -7.18527 v -18.37317 h 7.18527 z m 23.74304,-0.20483 h -18.35353 v -7.19131 h 18.35353 z m 0.19876,-12.77582 h -7.17696 v -18.35431 h 7.17696 z"
           class="cls-1" />
      </g>
    </g>
  </g>
  <g
     id="text103"
     style="font-weight:600;font-size:105.87758636px;font-family:SourceSans3-Semibold, 'Source Sans 3';fill:#53565a"
     transform="translate(1343.9356,375.32104)"
     aria-label="PerformanceImprovement">
    <path
       id="path111"
       style=""
       d="M 8.7878397,0 V -69.243941 H 30.598622 q 7.729064,0 13.764087,2.011674 6.035022,2.011674 9.528982,6.670288 3.493961,4.658613 3.493961,12.70531 0,7.623186 -3.493961,12.599433 -3.388082,4.976246 -9.423105,7.411431 -5.929145,2.435184 -13.446453,2.435184 H 21.06964 V 0 Z M 21.06964,-35.257236 h 8.999595 q 7.729063,0 11.434779,-3.176328 3.811593,-3.176327 3.811593,-9.423105 0,-6.56441 -4.023348,-8.999595 -3.917471,-2.541062 -11.646535,-2.541062 H 21.06964 Z" />
    <path
       id="path113"
       style=""
       d="m 89.418585,1.270531 q -7.305554,0 -13.234699,-3.1763276 -5.823267,-3.2822051 -9.21135,-9.3172274 -3.388083,-6.1409 -3.388083,-14.822862 0,-8.470207 3.493961,-14.50523 3.49396,-6.1409 8.999595,-9.423105 5.505634,-3.282205 11.646534,-3.282205 7.093798,0 11.85829,3.176328 4.764487,3.176327 7.093797,8.787839 2.43519,5.505635 2.43519,12.705311 0,1.694041 -0.21176,3.282205 -0.10588,1.588164 -0.42351,3.07045 H 72.689926 v -9.317228 h 25.622376 q 0,-5.611512 -2.541062,-8.787839 -2.541062,-3.282206 -7.834942,-3.282206 -2.964572,0 -5.823267,1.588164 -2.752817,1.588164 -4.658614,5.399757 -1.799919,3.811593 -1.799919,10.587759 0,6.1409 2.117552,10.05837 2.117552,3.811594 5.611512,5.71739 3.49396,1.7999191 7.517309,1.7999191 3.388082,0 6.352655,-0.9528983 3.070454,-0.9528978 5.717394,-2.6469398 l 4.2351,7.8349415 q -3.59984,2.5410621 -8.258453,4.02334833 Q 94.394831,1.270531 89.418585,1.270531 Z" />
    <path
       id="path115"
       style=""
       d="m 120.84437,0 v -51.985895 h 10.05838 l 0.84702,9.21135 h 0.42351 q 2.75281,-5.082124 6.56441,-7.729064 3.91747,-2.752817 8.15257,-2.752817 2.01167,0 3.38808,0.211755 1.37641,0.211755 2.54107,0.847021 l -2.43519,10.376003 q -1.27053,-0.317632 -2.32931,-0.42351 -1.05877,-0.211755 -2.75281,-0.211755 -3.07045,0 -6.45854,2.435184 -3.38808,2.329307 -5.82326,8.258452 V 0 Z" />
    <path
       id="path117"
       style=""
       d="m 162.45923,0 v -57.385652 q 0,-5.399757 1.69404,-9.63486 1.79992,-4.235104 5.61151,-6.564411 3.81159,-2.435184 9.95249,-2.435184 2.8587,0 5.29388,0.529388 2.54106,0.529388 4.2351,1.270531 l -2.54106,8.78784 q -2.75281,-0.952899 -5.50563,-0.952899 -3.17633,0 -4.87037,2.117552 -1.69404,2.117552 -1.69404,6.670288 V 0 Z m -7.72907,-42.351035 v -9.105472 l 8.47021,-0.529388 h 21.59903 v 9.63486 z" />
    <path
       id="path119"
       style=""
       d="m 214.08944,1.270531 q -6.45853,0 -12.07005,-3.1763276 -5.61151,-3.2822051 -9.10547,-9.3172274 -3.49396,-6.1409 -3.49396,-14.716985 0,-8.681962 3.49396,-14.716984 3.49396,-6.1409 9.10547,-9.317228 5.61152,-3.282205 12.07005,-3.282205 6.56441,0 12.17592,3.282205 5.61151,3.176328 9.10547,9.317228 3.49396,6.035022 3.49396,14.716984 0,8.576085 -3.49396,14.716985 -3.49396,6.0350223 -9.10547,9.3172274 -5.61151,3.1763276 -12.17592,3.1763276 z m 0,-9.9524931 q 3.81159,0 6.56441,-2.1175519 2.75282,-2.117552 4.2351,-6.035022 1.48229,-3.917471 1.48229,-9.105473 0,-5.188001 -1.48229,-9.105472 -1.48228,-3.917471 -4.2351,-6.035023 -2.75282,-2.223429 -6.56441,-2.223429 -3.81159,0 -6.56441,2.223429 -2.64694,2.117552 -4.12923,6.035023 -1.48228,3.917471 -1.48228,9.105472 0,5.188002 1.48228,9.105473 1.48229,3.91747 4.12923,6.035022 2.75282,2.1175519 6.56441,2.1175519 z" />
    <path
       id="path121"
       style=""
       d="m 250.91664,0 v -51.985895 h 10.05837 l 0.84702,9.21135 h 0.42351 q 2.75282,-5.082124 6.56441,-7.729064 3.91747,-2.752817 8.15258,-2.752817 2.01167,0 3.38808,0.211755 1.37641,0.211755 2.54106,0.847021 l -2.43518,10.376003 q -1.27053,-0.317632 -2.32931,-0.42351 -1.05878,-0.211755 -2.75282,-0.211755 -3.07045,0 -6.45853,2.435184 -3.38808,2.329307 -5.82327,8.258452 V 0 Z" />
    <path
       id="path123"
       style=""
       d="m 290.41394,0 v -51.985895 h 10.05837 l 0.84702,7.093798 h 0.42351 q 3.28221,-3.49396 7.0938,-5.929144 3.91747,-2.435185 8.78784,-2.435185 5.82327,0 9.21135,2.435185 3.38808,2.435184 5.188,6.882043 3.70572,-4.023349 7.72906,-6.670288 4.02335,-2.64694 8.9996,-2.64694 8.25845,0 12.17592,5.399757 3.91747,5.399757 3.91747,15.246372 V 0 h -12.2818 v -31.022133 q 0,-6.458533 -1.90579,-9.105472 -1.9058,-2.64694 -6.03503,-2.64694 -2.54106,0 -5.188,1.588164 -2.64694,1.588164 -5.71739,4.870369 V 0 h -12.17592 v -31.022133 q 0,-6.458533 -2.01167,-9.105472 -1.9058,-2.64694 -6.03503,-2.64694 -4.87037,0 -10.90539,6.458533 V 0 Z" />
    <path
       id="path125"
       style=""
       d="m 392.3476,1.270531 q -4.55274,0 -8.0467,-1.90579652 -3.49396,-1.90579658 -5.50563,-5.29387928 -1.9058,-3.4939604 -1.9058,-8.0466962 0,-8.78784 7.30556,-13.234699 7.41143,-4.552736 23.39894,-6.246777 -0.10587,-2.64694 -1.05877,-4.870369 -0.84702,-2.22343 -2.96458,-3.493961 -2.01167,-1.376408 -5.50563,-1.376408 -3.81159,0 -7.51731,1.376408 -3.59984,1.376409 -7.0938,3.493961 l -4.44686,-8.258452 q 2.8587,-1.799919 6.24678,-3.282205 3.38809,-1.588164 7.19968,-2.435185 3.81159,-0.952898 7.94082,-0.952898 6.45853,0 10.69363,2.64694 4.34098,2.541062 6.45854,7.623186 2.22343,4.976246 2.22343,12.2818 V 0 h -10.05838 l -0.84702,-5.7173897 h -0.42351 q -3.59983,2.9645725 -7.5173,4.9762466 -3.91748,2.0116741 -8.57609,2.0116741 z m 3.81159,-9.9524931 q 3.17633,0 5.82327,-1.270531 2.75282,-1.3764089 5.61151,-4.0233479 V -24.98711 q -7.0938,0.84702 -11.22302,2.223429 -4.12923,1.376409 -5.92915,3.388083 -1.69404,1.905796 -1.69404,4.552736 0,3.282205 2.11755,4.764491 2.11756,1.3764089 5.29388,1.3764089 z" />
    <path
       id="path127"
       style=""
       d="m 434.34131,0 v -51.985895 h 10.05837 l 0.84702,6.987921 h 0.42351 q 3.49396,-3.388083 7.62319,-5.823267 4.12922,-2.435185 9.4231,-2.435185 8.36433,0 12.17592,5.399757 3.8116,5.399757 3.8116,15.246372 V 0 h -12.17593 v -31.022133 q 0,-6.458533 -1.90579,-9.105472 -1.9058,-2.64694 -6.24678,-2.64694 -3.38808,0 -6.03502,1.694041 -2.54106,1.588164 -5.82327,4.764492 V 0 Z" />
    <path
       id="path129"
       style=""
       d="m 515.6073,1.270531 q -7.19967,0 -12.91706,-3.1763276 -5.71739,-3.2822051 -9.10548,-9.3172274 -3.2822,-6.1409 -3.2822,-14.716985 0,-8.681962 3.59984,-14.716984 3.59984,-6.1409 9.52898,-9.317228 6.03502,-3.282205 12.91707,-3.282205 4.97624,0 8.68196,1.694041 3.81159,1.588164 6.56441,4.129226 l -5.82327,7.623187 q -1.69404,-1.588164 -3.91747,-2.541063 -2.11755,-0.952898 -4.87037,-0.952898 -4.12922,0 -7.30555,2.223429 -3.17633,2.117552 -5.08213,6.035023 -1.79992,3.811593 -1.79992,9.105472 0,5.188002 1.79992,9.105473 1.79992,3.811593 4.87037,6.035022 3.17633,2.1175519 7.30556,2.1175519 3.07045,0 5.71739,-1.1646534 2.75281,-1.1646535 4.87036,-2.9645725 l 4.97625,7.5173087 q -3.2822,2.9645724 -7.62319,4.76449137 -4.2351,1.79991893 -9.10547,1.79991893 z" />
    <path
       id="path131"
       style=""
       d="m 562.55904,1.270531 q -7.30555,0 -13.2347,-3.1763276 -5.82326,-3.2822051 -9.21135,-9.3172274 -3.38808,-6.1409 -3.38808,-14.822862 0,-8.470207 3.49396,-14.50523 3.49396,-6.1409 8.9996,-9.423105 5.50563,-3.282205 11.64653,-3.282205 7.0938,0 11.85829,3.176328 4.76449,3.176327 7.0938,8.787839 2.43518,5.505635 2.43518,12.705311 0,1.694041 -0.21175,3.282205 -0.10588,1.588164 -0.42351,3.07045 h -35.78663 v -9.317228 h 25.62238 q 0,-5.611512 -2.54106,-8.787839 -2.54107,-3.282206 -7.83494,-3.282206 -2.96458,0 -5.82327,1.588164 -2.75282,1.588164 -4.65862,5.399757 -1.79991,3.811593 -1.79991,10.587759 0,6.1409 2.11755,10.05837 2.11755,3.811594 5.61151,5.71739 3.49396,1.7999191 7.51731,1.7999191 3.38808,0 6.35265,-0.9528983 3.07045,-0.9528978 5.71739,-2.6469398 l 4.23511,7.8349415 q -3.59984,2.5410621 -8.25846,4.02334833 -4.55273,1.48228617 -9.52898,1.48228617 z" />
    <path
       id="path133"
       style=""
       d="M 8.7878397,128.56543 V 59.321488 H 21.06964 v 69.243942 z" />
    <path
       id="path135"
       style=""
       d="M 37.507134,128.56543 V 76.579535 h 10.058371 l 0.847021,7.093798 h 0.42351 q 3.282205,-3.49396 7.093798,-5.929145 3.917471,-2.435184 8.78784,-2.435184 5.823267,0 9.21135,2.435184 3.388083,2.435185 5.188002,6.882043 3.705715,-4.023348 7.729064,-6.670288 4.023348,-2.646939 8.999594,-2.646939 8.258456,0 12.175926,5.399757 3.91747,5.399757 3.91747,15.246372 V 128.56543 H 99.657277 V 97.543297 q 0,-6.458533 -1.905796,-9.105473 -1.905797,-2.646939 -6.035023,-2.646939 -2.541062,0 -5.188001,1.588164 -2.64694,1.588163 -5.71739,4.870369 V 128.56543 H 68.635145 V 97.543297 q 0,-6.458533 -2.011674,-9.105473 -1.905797,-2.646939 -6.035023,-2.646939 -4.870369,0 -10.905391,6.458533 v 36.316012 z" />
    <path
       id="path137"
       style=""
       d="M 126.84135,149.10568 V 76.579535 h 10.05837 l 0.84702,5.505634 h 0.42351 q 3.2822,-2.858695 7.30555,-4.764491 4.02335,-2.011674 8.36433,-2.011674 6.45853,0 11.01127,3.282205 4.55274,3.282205 6.98792,9.21135 2.43518,5.929145 2.43518,13.975841 0,8.89372 -3.17632,15.1405 -3.17633,6.24677 -8.25846,9.63486 -4.97624,3.2822 -10.79951,3.2822 -3.38808,0 -6.77616,-1.48229 -3.38809,-1.48228 -6.56441,-4.2351 l 0.31763,8.68196 v 16.30515 z m 22.6578,-29.32809 q 3.49396,0 6.24678,-2.01167 2.75281,-2.01168 4.34098,-5.92915 1.58816,-4.02335 1.58816,-9.95249 0,-5.188004 -1.16465,-8.893719 -1.16466,-3.705716 -3.70572,-5.611512 -2.43518,-2.011675 -6.35265,-2.011675 -2.8587,0 -5.61151,1.482287 -2.75282,1.376408 -5.82327,4.340981 v 24.245968 q 2.85869,2.32931 5.50563,3.38808 2.75282,0.9529 4.97625,0.9529 z" />
    <path
       id="path139"
       style=""
       d="M 186.60428,128.56543 V 76.579535 h 10.05837 l 0.84702,9.21135 h 0.42351 q 2.75282,-5.082124 6.56441,-7.729064 3.91747,-2.752817 8.15257,-2.752817 2.01168,0 3.38809,0.211755 1.37641,0.211755 2.54106,0.847021 l -2.43519,10.376003 q -1.27053,-0.317633 -2.3293,-0.42351 -1.05878,-0.211755 -2.75282,-0.211755 -3.07045,0 -6.45853,2.435184 -3.38809,2.329307 -5.82327,8.258452 v 31.763276 z" />
    <path
       id="path141"
       style=""
       d="m 246.34902,129.83596 q -6.45853,0 -12.07004,-3.17633 -5.61152,-3.2822 -9.10548,-9.31722 -3.49396,-6.1409 -3.49396,-14.71699 0,-8.681961 3.49396,-14.716983 3.49396,-6.1409 9.10548,-9.317228 5.61151,-3.282205 12.07004,-3.282205 6.56441,0 12.17592,3.282205 5.61152,3.176328 9.10548,9.317228 3.49396,6.035022 3.49396,14.716983 0,8.57609 -3.49396,14.71699 -3.49396,6.03502 -9.10548,9.31722 -5.61151,3.17633 -12.17592,3.17633 z m 0,-9.95249 q 3.81159,0 6.56441,-2.11755 2.75282,-2.11756 4.2351,-6.03503 1.48229,-3.91747 1.48229,-9.10547 0,-5.188001 -1.48229,-9.105471 -1.48228,-3.917471 -4.2351,-6.035023 -2.75282,-2.223429 -6.56441,-2.223429 -3.81159,0 -6.56441,2.223429 -2.64694,2.117552 -4.12923,6.035023 -1.48228,3.91747 -1.48228,9.105471 0,5.188 1.48228,9.10547 1.48229,3.91747 4.12923,6.03503 2.75282,2.11755 6.56441,2.11755 z" />
    <path
       id="path143"
       style=""
       d="M 294.20238,128.56543 276.09731,76.579535 h 12.38768 l 8.25845,26.998785 q 1.05878,3.70571 2.11755,7.72906 1.16466,3.91747 2.22343,7.94082 h 0.42351 q 1.16466,-4.02335 2.22343,-7.94082 1.16466,-4.02335 2.22343,-7.72906 l 8.25845,-26.998785 h 11.75242 L 308.2841,128.56543 Z" />
    <path
       id="path145"
       style=""
       d="m 356.59405,129.83596 q -7.30556,0 -13.2347,-3.17633 -5.82327,-3.2822 -9.21135,-9.31722 -3.38809,-6.1409 -3.38809,-14.82287 0,-8.470203 3.49396,-14.505226 3.49396,-6.1409 8.9996,-9.423105 5.50563,-3.282205 11.64653,-3.282205 7.0938,0 11.85829,3.176327 4.76449,3.176328 7.0938,8.78784 2.43519,5.505634 2.43519,12.70531 0,1.694039 -0.21176,3.282209 -0.10588,1.58816 -0.42351,3.07045 h -35.78662 v -9.317231 h 25.62237 q 0,-5.611512 -2.54106,-8.78784 -2.54106,-3.282205 -7.83494,-3.282205 -2.96457,0 -5.82327,1.588164 -2.75282,1.588164 -4.65861,5.399757 -1.79992,3.811593 -1.79992,10.587755 0,6.1409 2.11755,10.05837 2.11755,3.8116 5.61151,5.71739 3.49396,1.79992 7.51731,1.79992 3.38808,0 6.35266,-0.9529 3.07045,-0.95289 5.71739,-2.64694 l 4.2351,7.83495 q -3.59984,2.54106 -8.25845,4.02334 -4.55274,1.48229 -9.52898,1.48229 z" />
    <path
       id="path147"
       style=""
       d="M 388.01984,128.56543 V 76.579535 h 10.05837 l 0.84702,7.093798 h 0.42351 q 3.2822,-3.49396 7.0938,-5.929145 3.91747,-2.435184 8.78783,-2.435184 5.82327,0 9.21135,2.435184 3.38809,2.435185 5.18801,6.882043 3.70571,-4.023348 7.72906,-6.670288 4.02335,-2.646939 8.9996,-2.646939 8.25845,0 12.17592,5.399757 3.91747,5.399757 3.91747,15.246372 v 32.610297 h -12.2818 V 97.543297 q 0,-6.458533 -1.9058,-9.105473 -1.90579,-2.646939 -6.03502,-2.646939 -2.54106,0 -5.188,1.588164 -2.64694,1.588163 -5.71739,4.870369 V 128.56543 H 419.14785 V 97.543297 q 0,-6.458533 -2.01168,-9.105473 -1.9058,-2.646939 -6.03502,-2.646939 -4.87037,0 -10.90539,6.458533 v 36.316012 z" />
    <path
       id="path149"
       style=""
       d="m 499.69423,129.83596 q -7.30555,0 -13.23469,-3.17633 -5.82327,-3.2822 -9.21135,-9.31722 -3.38809,-6.1409 -3.38809,-14.82287 0,-8.470203 3.49396,-14.505226 3.49396,-6.1409 8.9996,-9.423105 5.50563,-3.282205 11.64653,-3.282205 7.0938,0 11.85829,3.176327 4.76449,3.176328 7.0938,8.78784 2.43519,5.505634 2.43519,12.70531 0,1.694039 -0.21176,3.282209 -0.10588,1.58816 -0.42351,3.07045 h -35.78662 v -9.317231 h 25.62237 q 0,-5.611512 -2.54106,-8.78784 -2.54106,-3.282205 -7.83494,-3.282205 -2.96457,0 -5.82327,1.588164 -2.75282,1.588164 -4.65861,5.399757 -1.79992,3.811593 -1.79992,10.587755 0,6.1409 2.11755,10.05837 2.11755,3.8116 5.61151,5.71739 3.49396,1.79992 7.51731,1.79992 3.38808,0 6.35266,-0.9529 3.07045,-0.95289 5.71739,-2.64694 l 4.2351,7.83495 q -3.59984,2.54106 -8.25845,4.02334 -4.55274,1.48229 -9.52899,1.48229 z" />
    <path
       id="path151"
       style=""
       d="M 531.11999,128.56543 V 76.579535 h 10.05837 l 0.84703,6.98792 h 0.42351 q 3.49396,-3.388082 7.62318,-5.823267 4.12923,-2.435184 9.42311,-2.435184 8.36433,0 12.17592,5.399757 3.81159,5.399757 3.81159,15.246372 V 128.56543 H 563.30678 V 97.543297 q 0,-6.458533 -1.9058,-9.105473 -1.90579,-2.646939 -6.24677,-2.646939 -3.38809,0 -6.03503,1.694041 -2.54106,1.588164 -5.82326,4.764492 v 36.316012 z" />
    <path
       id="path153"
       style=""
       d="m 608.78618,129.62421 q -8.99959,0 -12.81119,-5.18801 -3.70571,-5.29388 -3.70571,-13.6582 V 86.214395 h -7.41143 v -9.105472 l 8.04669,-0.529388 1.48229,-16.305149 h 10.16425 v 16.305149 h 13.2347 v 9.63486 h -13.2347 V 110.778 q 0,4.55273 1.79992,6.88204 1.79992,2.22343 5.50563,2.22343 1.37641,0 2.75282,-0.21176 1.37641,-0.21175 2.64694,-0.84702 l 2.22343,8.57609 q -2.01168,0.95289 -4.76449,1.58816 -2.75282,0.63527 -5.92915,0.63527 z" />
  </g>
</svg>
